<?xml version="1.0" encoding="utf-8"?>
<!-- Generator: Adobe Illustrator 24.0.3, SVG Export Plug-In . SVG Version: 6.00 Build 0)  -->
<svg version="1.1" id="Layer_1" xmlns="http://www.w3.org/2000/svg" xmlns:xlink="http://www.w3.org/1999/xlink" x="0px" y="0px"
	 viewBox="0 0 576 576" preserveAspectRatio="none" style="enable-background:new 0 0 576 576;" xml:space="preserve">
<style type="text/css">
	.st0{fill:#000000;stroke:#000000;stroke-miterlimit:10;}
</style>
<g class="st0">
	<g>
		<g>
			<path d="M432.58,556.26c-16.69,0-33.39,0-50.09,0c-35.4,0-70.82,0-106.22,0c-32.18,0-64.38,0-96.56,0c-7.86,0-15.72,0-23.58,0
				c-0.97,0-1.91,0.06-2.06-0.19c-0.43-0.77,0.37-3.77,0.42-4.64c1.33-19.08-0.77-38.83-7.06-56.92
				c-9.7-27.89-30.6-48.94-59.04-57.55c-20.53-6.21-42.56-6.3-63.71-3.83c-1.65,0.19-8.52,1.86-9.07,0.9c-0.23-0.39,0-1.63,0-2.07
				c0-3.06,0-6.13,0-9.2c0-27.94,0-55.9,0-83.84c0-36.63,0-73.26,0-109.89c0-23.29,0-46.58,0-69.87c0-1.16,0-2.32,0-3.48
				c0,0.63-7.75,1.62-7.75,2.91c0,31.53,0,63.06,0,94.58c0,49.88,0,99.76,0,149.64c0,11.49,0,22.98,0,34.46c0.06,0,0.11,0,0.16,0.01
				c40.57-6.14,87.98-3.48,115.76,30.91c16.51,20.44,22.85,47.45,23.28,73.28c0.1,5.87,0.01,11.85-0.77,17.68
				c0.06,0,0.11,0,0.16,0.01c31.53,0,63.06,0,94.58,0c49.88,0,99.76,0,149.64,0c11.49,0,22.98,0,34.46,0
				C427.51,559.18,430.99,556.26,432.58,556.26L432.58,556.26z"/>
		</g>
	</g>
	<g>
		<g>
			<path d="M17.57,436.15c0-31.53,0-63.06,0-94.58c0-49.88,0-99.76,0-149.64c0-11.49,0-22.98,0-34.46
				c-1.84,1.84-3.68,3.68-5.52,5.52c16.52,2.22,34.23,0.6,50.37-3.13c32.36-7.45,59.36-27.61,71.64-59.01
				c10.3-26.33,9.35-55.8,5.18-83.28c-1.78,2.33-3.55,4.65-5.33,6.99c31.53,0,63.06,0,94.58,0c49.88,0,99.76,0,149.64,0
				c11.49,0,22.98,0,34.46,0c7.1,0,7.11-11.04,0-11.04c-31.53,0-63.06,0-94.58,0c-49.88,0-99.76,0-149.64,0
				c-11.49,0-22.98,0-34.46,0c-3.92,0-5.85,3.5-5.33,6.99c5.89,38.88,3.34,84.7-30.01,110.96c-19.52,15.38-45.24,20.92-69.28,21.26
				c-5.73,0.08-11.57-0.01-17.26-0.77c-2.96-0.4-5.52,2.85-5.52,5.52c0,31.53,0,63.06,0,94.58c0,49.88,0,99.76,0,149.64
				c0,11.49,0,22.98,0,34.46C6.54,443.25,17.57,443.26,17.57,436.15L17.57,436.15z"/>
		</g>
	</g>
	<g>
		<g>
			<path d="M144.93,20.49c17.49,0,34.99,0,52.48,0c36.05,0,72.09,0,108.14,0c29.35,0,58.69,0,88.04,0c4.63,0,9.25,0,13.88,0
				c3.9,0,7.79,0,11.69,0c0.96,0,3.99-0.28,4.29,0.17c0.42,0.65-0.37,3.78-0.42,4.54c-1.34,19.01,0.73,38.71,6.95,56.75
				c9.6,27.85,30.37,49.02,58.73,57.72c20.65,6.34,42.84,6.45,64.12,3.96c1.67-0.19,8.36-1.89,9.07-0.94c0.22,0.29,0,1.66,0,2.01
				c0,3.03,0,6.06,0,9.09c0,27.87,0,55.73,0,83.6c0,36.77,0,73.55,0,110.33c0,23.29,0,46.58,0,69.87c0,1.16,0,2.32,0,3.48
				c0-0.63,7.75-1.62,7.75-2.91c0-31.53,0-63.06,0-94.58c0-49.88,0-99.76,0-149.64c0-11.49,0-22.98,0-34.46
				c-0.06,0-0.11,0-0.16-0.01c-40.57,6.14-87.98,3.48-115.76-30.91c-16.51-20.44-22.85-47.45-23.28-73.28
				c-0.1-5.87-0.01-11.85,0.77-17.68c-0.06,0-0.11,0-0.16-0.01c-30.22,0-60.45,0-90.68,0c-50.6,0-101.2,0-151.79,0
				c-12.08,0-24.15,0-36.22,0C150,17.56,146.52,20.49,144.93,20.49L144.93,20.49z"/>
		</g>
	</g>
	<g>
		<g>
			<path d="M559.93,140.59c0,31.53,0,63.06,0,94.58c0,49.88,0,99.76,0,149.64c0,11.49,0,22.98,0,34.46
				c1.84-1.84,3.68-3.68,5.52-5.52c-16.52-2.22-34.23-0.6-50.37,3.13c-32.36,7.45-59.36,27.61-71.64,59.01
				c-10.3,26.33-9.35,55.8-5.18,83.28c1.78-2.33,3.55-4.65,5.33-6.99c-35.37,0-70.73,0-106.1,0c-51.12,0-102.25,0-153.38,0
				c-13.2,0-26.39,0-39.59,0c-7.1,0-7.11,11.04,0,11.04c32.34,0,64.68,0,97.02,0c54.35,0,108.71,0,163.06,0c13,0,25.99,0,38.99,0
				c3.92,0,5.85-3.5,5.33-6.99c-5.89-38.88-3.34-84.7,30.01-110.96c19.52-15.38,45.24-20.92,69.28-21.26
				c5.73-0.08,11.57,0.01,17.26,0.77c2.96,0.4,5.52-2.85,5.52-5.52c0-31.53,0-63.06,0-94.58c0-49.88,0-99.76,0-149.64
				c0-11.49,0-22.98,0-34.46C570.97,133.49,559.93,133.48,559.93,140.59L559.93,140.59z"/>
		</g>
	</g>
	<g>
		<g>
			<path d="M433.32,13.51c-5.47,0-10.95,0-16.42,0c-7.1,0-7.11,11.04,0,11.04c5.47,0,10.95,0,16.42,0
				C440.43,24.54,440.43,13.51,433.32,13.51L433.32,13.51z"/>
		</g>
	</g>
</g>
</svg>
